#N canvas 499 330 450 300 10;
#X declare -lib mrpeach;
#X obj 13 13 import mrpeach;
#X msg 64 50 connect localhost 8000;
#X msg 107 79 disconnect;
#X obj 176 255 udpsend;
#X obj 260 197 packOSC;
#X msg 253 116 127;
#X msg 304 117 64;
#X msg 257 170 send /note/50/ \$1;
#X connect 1 0 3 0;
#X connect 2 0 3 0;
#X connect 4 0 3 0;
#X connect 5 0 7 0;
#X connect 6 0 7 0;
#X connect 7 0 4 0;
